<mxfile host="app.diagrams.net" modified="2023-07-29T13:48:32.076Z" agent="Mozilla/5.0 (Windows NT 10.0; Win64; x64) AppleWebKit/537.36 (KHTML, like Gecko) Chrome/115.0.0.0 Safari/537.36" etag="6DvZ30sirBxniuq12Ncf" version="21.6.2" type="github">
  <diagram name="Page-1" id="tXGc1czYYgCE-eAsgy8O">
    <mxGraphModel dx="880" dy="1639" grid="1" gridSize="10" guides="1" tooltips="1" connect="1" arrows="1" fold="1" page="1" pageScale="1" pageWidth="827" pageHeight="1169" math="0" shadow="0">
      <root>
        <mxCell id="0" />
        <mxCell id="1" parent="0" />
        <mxCell id="EYXTRXa8_8x5UYYQkYSx-8" value="" style="rounded=1;whiteSpace=wrap;html=1;" vertex="1" parent="1">
          <mxGeometry x="320" y="108.5" width="140" height="160" as="geometry" />
        </mxCell>
        <mxCell id="EYXTRXa8_8x5UYYQkYSx-6" value="" style="whiteSpace=wrap;html=1;" vertex="1" parent="1">
          <mxGeometry x="89" y="105" width="160" height="160" as="geometry" />
        </mxCell>
        <mxCell id="EYXTRXa8_8x5UYYQkYSx-1" value="" style="outlineConnect=0;dashed=0;verticalLabelPosition=bottom;verticalAlign=top;align=center;html=1;shape=mxgraph.aws3.user;fillColor=#D2D3D3;gradientColor=none;" vertex="1" parent="1">
          <mxGeometry x="40" y="170" width="45" height="63" as="geometry" />
        </mxCell>
        <mxCell id="EYXTRXa8_8x5UYYQkYSx-2" value="" style="verticalLabelPosition=bottom;html=1;verticalAlign=top;align=center;strokeColor=none;fillColor=#00BEF2;shape=mxgraph.azure.visual_studio_online;" vertex="1" parent="1">
          <mxGeometry x="139" y="223" width="40" height="20" as="geometry" />
        </mxCell>
        <mxCell id="EYXTRXa8_8x5UYYQkYSx-3" value="" style="verticalLabelPosition=bottom;html=1;verticalAlign=top;align=center;strokeColor=none;fillColor=#00BEF2;shape=mxgraph.azure.code_file;pointerEvents=1;" vertex="1" parent="1">
          <mxGeometry x="100" y="120" width="120" height="137" as="geometry" />
        </mxCell>
        <mxCell id="EYXTRXa8_8x5UYYQkYSx-4" style="edgeStyle=orthogonalEdgeStyle;rounded=0;orthogonalLoop=1;jettySize=auto;html=1;exitX=0.5;exitY=0.75;exitDx=0;exitDy=0;exitPerimeter=0;entryX=0.5;entryY=0.533;entryDx=0;entryDy=0;entryPerimeter=0;" edge="1" parent="1" source="EYXTRXa8_8x5UYYQkYSx-2" target="EYXTRXa8_8x5UYYQkYSx-2">
          <mxGeometry relative="1" as="geometry" />
        </mxCell>
        <mxCell id="EYXTRXa8_8x5UYYQkYSx-5" value="" style="shape=image;html=1;verticalAlign=top;verticalLabelPosition=bottom;labelBackgroundColor=#ffffff;imageAspect=0;aspect=fixed;image=https://cdn2.iconfinder.com/data/icons/boxicons-regular-vol-2/24/bx-git-repo-forked-128.png" vertex="1" parent="1">
          <mxGeometry x="179" y="190" width="30" height="30" as="geometry" />
        </mxCell>
        <mxCell id="EYXTRXa8_8x5UYYQkYSx-9" value="&lt;b&gt;AWS CodeCommit&lt;/b&gt;" style="text;strokeColor=none;align=center;fillColor=none;html=1;verticalAlign=middle;whiteSpace=wrap;rounded=0;" vertex="1" parent="1">
          <mxGeometry x="335" y="193" width="110" height="30" as="geometry" />
        </mxCell>
        <mxCell id="EYXTRXa8_8x5UYYQkYSx-10" value="&lt;b&gt;&lt;font style=&quot;font-size: 18px;&quot;&gt;CODE&lt;br&gt;COMMIT&lt;/font&gt;&lt;/b&gt;" style="text;strokeColor=none;align=center;fillColor=none;html=1;verticalAlign=middle;whiteSpace=wrap;rounded=0;" vertex="1" parent="1">
          <mxGeometry x="335" y="223" width="110" height="40" as="geometry" />
        </mxCell>
        <mxCell id="EYXTRXa8_8x5UYYQkYSx-11" value="" style="rounded=1;whiteSpace=wrap;html=1;" vertex="1" parent="1">
          <mxGeometry x="540" y="108.5" width="140" height="160" as="geometry" />
        </mxCell>
        <mxCell id="EYXTRXa8_8x5UYYQkYSx-12" value="" style="outlineConnect=0;dashed=0;verticalLabelPosition=bottom;verticalAlign=top;align=center;html=1;shape=mxgraph.aws3.codebuild;fillColor=#759C3E;gradientColor=none;" vertex="1" parent="1">
          <mxGeometry x="577" y="132" width="60" height="63" as="geometry" />
        </mxCell>
        <mxCell id="EYXTRXa8_8x5UYYQkYSx-13" value="&lt;b&gt;AWS CodeBuild&lt;/b&gt;" style="text;strokeColor=none;align=center;fillColor=none;html=1;verticalAlign=middle;whiteSpace=wrap;rounded=0;" vertex="1" parent="1">
          <mxGeometry x="555" y="193" width="110" height="30" as="geometry" />
        </mxCell>
        <mxCell id="EYXTRXa8_8x5UYYQkYSx-15" value="" style="outlineConnect=0;dashed=0;verticalLabelPosition=bottom;verticalAlign=top;align=center;html=1;shape=mxgraph.aws3.codecommit;fillColor=#759C3E;gradientColor=none;" vertex="1" parent="1">
          <mxGeometry x="356" y="133" width="58" height="61" as="geometry" />
        </mxCell>
        <mxCell id="EYXTRXa8_8x5UYYQkYSx-16" value="&lt;b&gt;&lt;font style=&quot;font-size: 11px;&quot;&gt;SOURCE&lt;/font&gt;&lt;/b&gt;" style="text;strokeColor=none;align=center;fillColor=none;html=1;verticalAlign=middle;whiteSpace=wrap;rounded=0;" vertex="1" parent="1">
          <mxGeometry x="318" y="115.5" width="70" height="11.5" as="geometry" />
        </mxCell>
        <mxCell id="EYXTRXa8_8x5UYYQkYSx-41" style="edgeStyle=orthogonalEdgeStyle;rounded=0;orthogonalLoop=1;jettySize=auto;html=1;exitX=0.5;exitY=1;exitDx=0;exitDy=0;" edge="1" parent="1" source="EYXTRXa8_8x5UYYQkYSx-21">
          <mxGeometry relative="1" as="geometry">
            <mxPoint x="900" y="390" as="targetPoint" />
          </mxGeometry>
        </mxCell>
        <mxCell id="EYXTRXa8_8x5UYYQkYSx-21" value="" style="rounded=1;whiteSpace=wrap;html=1;" vertex="1" parent="1">
          <mxGeometry x="740" y="115.5" width="140" height="160" as="geometry" />
        </mxCell>
        <mxCell id="EYXTRXa8_8x5UYYQkYSx-22" value="" style="outlineConnect=0;dashed=0;verticalLabelPosition=bottom;verticalAlign=top;align=center;html=1;shape=mxgraph.aws3.codebuild;fillColor=#759C3E;gradientColor=none;" vertex="1" parent="1">
          <mxGeometry x="777" y="139" width="60" height="63" as="geometry" />
        </mxCell>
        <mxCell id="EYXTRXa8_8x5UYYQkYSx-23" value="&lt;b&gt;AWS CodeBuild&lt;/b&gt;" style="text;strokeColor=none;align=center;fillColor=none;html=1;verticalAlign=middle;whiteSpace=wrap;rounded=0;" vertex="1" parent="1">
          <mxGeometry x="755" y="200" width="110" height="30" as="geometry" />
        </mxCell>
        <mxCell id="EYXTRXa8_8x5UYYQkYSx-25" value="&lt;b&gt;&lt;font style=&quot;font-size: 11px;&quot;&gt;REVIEW&lt;/font&gt;&lt;/b&gt;" style="text;strokeColor=none;align=center;fillColor=none;html=1;verticalAlign=middle;whiteSpace=wrap;rounded=0;" vertex="1" parent="1">
          <mxGeometry x="540" y="115.5" width="70" height="11.5" as="geometry" />
        </mxCell>
        <mxCell id="EYXTRXa8_8x5UYYQkYSx-26" value="&lt;b&gt;&lt;font style=&quot;font-size: 11px;&quot;&gt;BUILD&lt;/font&gt;&lt;/b&gt;" style="text;strokeColor=none;align=center;fillColor=none;html=1;verticalAlign=middle;whiteSpace=wrap;rounded=0;" vertex="1" parent="1">
          <mxGeometry x="740" y="120.5" width="70" height="11.5" as="geometry" />
        </mxCell>
        <mxCell id="EYXTRXa8_8x5UYYQkYSx-27" value="" style="rounded=1;whiteSpace=wrap;html=1;" vertex="1" parent="1">
          <mxGeometry x="940" y="120" width="140" height="160" as="geometry" />
        </mxCell>
        <mxCell id="EYXTRXa8_8x5UYYQkYSx-29" value="&lt;b&gt;AWS CodeDeploy&lt;/b&gt;" style="text;strokeColor=none;align=center;fillColor=none;html=1;verticalAlign=middle;whiteSpace=wrap;rounded=0;" vertex="1" parent="1">
          <mxGeometry x="955" y="204.5" width="110" height="30" as="geometry" />
        </mxCell>
        <mxCell id="EYXTRXa8_8x5UYYQkYSx-31" value="" style="outlineConnect=0;dashed=0;verticalLabelPosition=bottom;verticalAlign=top;align=center;html=1;shape=mxgraph.aws3.codedeploy;fillColor=#759C3E;gradientColor=none;" vertex="1" parent="1">
          <mxGeometry x="970" y="132" width="60" height="68" as="geometry" />
        </mxCell>
        <mxCell id="EYXTRXa8_8x5UYYQkYSx-42" style="edgeStyle=orthogonalEdgeStyle;rounded=0;orthogonalLoop=1;jettySize=auto;html=1;exitX=0.5;exitY=1;exitDx=0;exitDy=0;" edge="1" parent="1" source="EYXTRXa8_8x5UYYQkYSx-32">
          <mxGeometry relative="1" as="geometry">
            <mxPoint x="960" y="390" as="targetPoint" />
          </mxGeometry>
        </mxCell>
        <mxCell id="EYXTRXa8_8x5UYYQkYSx-43" style="edgeStyle=orthogonalEdgeStyle;rounded=0;orthogonalLoop=1;jettySize=auto;html=1;exitX=0.75;exitY=1;exitDx=0;exitDy=0;" edge="1" parent="1" source="EYXTRXa8_8x5UYYQkYSx-32" target="EYXTRXa8_8x5UYYQkYSx-38">
          <mxGeometry relative="1" as="geometry" />
        </mxCell>
        <mxCell id="EYXTRXa8_8x5UYYQkYSx-32" value="" style="rounded=1;whiteSpace=wrap;html=1;" vertex="1" parent="1">
          <mxGeometry x="1140" y="115.5" width="140" height="160" as="geometry" />
        </mxCell>
        <mxCell id="EYXTRXa8_8x5UYYQkYSx-33" value="&lt;b&gt;Elastic Beanstalk&lt;/b&gt;" style="text;strokeColor=none;align=center;fillColor=none;html=1;verticalAlign=middle;whiteSpace=wrap;rounded=0;" vertex="1" parent="1">
          <mxGeometry x="1155" y="200" width="110" height="30" as="geometry" />
        </mxCell>
        <mxCell id="EYXTRXa8_8x5UYYQkYSx-36" value="" style="outlineConnect=0;dashed=0;verticalLabelPosition=bottom;verticalAlign=top;align=center;html=1;shape=mxgraph.aws3.elastic_beanstalk;fillColor=#F58534;gradientColor=none;" vertex="1" parent="1">
          <mxGeometry x="1155" y="139" width="50" height="60" as="geometry" />
        </mxCell>
        <mxCell id="EYXTRXa8_8x5UYYQkYSx-37" value="" style="sketch=0;outlineConnect=0;fontColor=#232F3E;gradientColor=none;fillColor=#CC0000;strokeColor=none;dashed=0;verticalLabelPosition=bottom;verticalAlign=top;align=center;html=1;fontSize=12;fontStyle=0;aspect=fixed;pointerEvents=1;shape=mxgraph.aws4.bucket_with_objects;" vertex="1" parent="1">
          <mxGeometry x="887" y="385" width="95" height="98.79" as="geometry" />
        </mxCell>
        <mxCell id="EYXTRXa8_8x5UYYQkYSx-38" value="" style="outlineConnect=0;dashed=0;verticalLabelPosition=bottom;verticalAlign=top;align=center;html=1;shape=mxgraph.aws3.rds_db_instance_read_replica;fillColor=#2E73B8;gradientColor=none;" vertex="1" parent="1">
          <mxGeometry x="1205" y="370" width="49.5" height="66" as="geometry" />
        </mxCell>
        <mxCell id="EYXTRXa8_8x5UYYQkYSx-44" value="" style="shape=curlyBracket;whiteSpace=wrap;html=1;rounded=1;flipH=1;labelPosition=right;verticalLabelPosition=middle;align=left;verticalAlign=middle;rotation=-90;" vertex="1" parent="1">
          <mxGeometry x="761.12" y="-337.99" width="63.13" height="816.12" as="geometry" />
        </mxCell>
        <mxCell id="EYXTRXa8_8x5UYYQkYSx-45" value="&lt;b&gt;&lt;font style=&quot;font-size: 11px;&quot;&gt;ARTIFACT STORAGE&lt;/font&gt;&lt;/b&gt;" style="text;strokeColor=none;align=center;fillColor=none;html=1;verticalAlign=middle;whiteSpace=wrap;rounded=0;" vertex="1" parent="1">
          <mxGeometry x="892.5" y="491" width="100.5" height="30" as="geometry" />
        </mxCell>
        <mxCell id="EYXTRXa8_8x5UYYQkYSx-46" value="&lt;b&gt;&lt;font style=&quot;font-size: 11px;&quot;&gt;RDS&lt;/font&gt;&lt;/b&gt;" style="text;strokeColor=none;align=center;fillColor=none;html=1;verticalAlign=middle;whiteSpace=wrap;rounded=0;" vertex="1" parent="1">
          <mxGeometry x="1205.5" y="443" width="49" height="30" as="geometry" />
        </mxCell>
        <mxCell id="EYXTRXa8_8x5UYYQkYSx-47" value="" style="outlineConnect=0;dashed=0;verticalLabelPosition=bottom;verticalAlign=top;align=center;html=1;shape=mxgraph.aws3.codepipeline;fillColor=#759C3E;gradientColor=none;" vertex="1" parent="1">
          <mxGeometry x="755" y="-40" width="67" height="60" as="geometry" />
        </mxCell>
        <mxCell id="EYXTRXa8_8x5UYYQkYSx-48" value="&lt;b&gt;AWS Pipeline&lt;/b&gt;" style="text;strokeColor=none;align=center;fillColor=none;html=1;verticalAlign=middle;whiteSpace=wrap;rounded=0;" vertex="1" parent="1">
          <mxGeometry x="733.5" y="20" width="110" height="30" as="geometry" />
        </mxCell>
        <mxCell id="EYXTRXa8_8x5UYYQkYSx-49" value="" style="html=1;shadow=0;dashed=0;align=center;verticalAlign=middle;shape=mxgraph.arrows2.sharpArrow;dy1=0.67;dx1=18;dx2=18;notch=0;gradientColor=default;" vertex="1" parent="1">
          <mxGeometry x="260" y="178.5" width="45" height="20" as="geometry" />
        </mxCell>
        <mxCell id="EYXTRXa8_8x5UYYQkYSx-51" value="" style="html=1;shadow=0;dashed=0;align=center;verticalAlign=middle;shape=mxgraph.arrows2.sharpArrow;dy1=0.67;dx1=18;dx2=18;notch=0;gradientColor=default;" vertex="1" parent="1">
          <mxGeometry x="480" y="180" width="45" height="20" as="geometry" />
        </mxCell>
        <mxCell id="EYXTRXa8_8x5UYYQkYSx-53" value="" style="html=1;shadow=0;dashed=0;align=center;verticalAlign=middle;shape=mxgraph.arrows2.sharpArrow;dy1=0.67;dx1=18;dx2=18;notch=0;gradientColor=default;" vertex="1" parent="1">
          <mxGeometry x="687" y="179" width="45" height="20" as="geometry" />
        </mxCell>
        <mxCell id="EYXTRXa8_8x5UYYQkYSx-54" value="" style="html=1;shadow=0;dashed=0;align=center;verticalAlign=middle;shape=mxgraph.arrows2.sharpArrow;dy1=0.67;dx1=18;dx2=18;notch=0;gradientColor=default;" vertex="1" parent="1">
          <mxGeometry x="887" y="178.5" width="45" height="20" as="geometry" />
        </mxCell>
        <mxCell id="EYXTRXa8_8x5UYYQkYSx-55" value="" style="html=1;shadow=0;dashed=0;align=center;verticalAlign=middle;shape=mxgraph.arrows2.sharpArrow;dy1=0.67;dx1=18;dx2=18;notch=0;gradientColor=default;" vertex="1" parent="1">
          <mxGeometry x="1090" y="178.5" width="45" height="20" as="geometry" />
        </mxCell>
      </root>
    </mxGraphModel>
  </diagram>
</mxfile>
